<svg width="21" height="14" viewBox="0 0 21 14" fill="none" xmlns="http://www.w3.org/2000/svg">
<path fill-rule="evenodd" clip-rule="evenodd" d="M4.5 0H0L3 2.47619V12.5C3 13.3284 3.67157 14 4.5 14H19.5C20.3284 14 21 13.3284 21 12.5V1.5C21 0.671573 20.3284 0 19.5 0H7H4.5Z" fill="white"/>
<circle cx="8" cy="5" r="1" fill="#0744F2"/>
<circle cx="16" cy="5" r="1" fill="#0744F2"/>
<path fill-rule="evenodd" clip-rule="evenodd" d="M9.09964 8C9.04441 8 8.99947 8.04499 9.00128 8.10019C9.05412 9.71066 10.3763 11 11.9996 11C13.623 11 14.9451 9.71066 14.998 8.10019C14.9998 8.04499 14.9549 8 14.8996 8L9.09964 8Z" fill="#0744F2"/>
</svg>
