<svg width="139" height="94" viewBox="0 0 139 94" fill="none" xmlns="http://www.w3.org/2000/svg">
<g clip-path="url(#clip0_90_16)">
<path d="M67.559 93.2522C104.574 93.2522 134.58 90.3788 134.58 86.8341C134.58 83.2895 104.574 80.416 67.559 80.416C30.5445 80.416 0.53833 83.2895 0.53833 86.8341C0.53833 90.3788 30.5445 93.2522 67.559 93.2522Z" fill="#E4E8EC"/>
<path d="M81.684 87.464H22.3641C20.0653 87.4638 17.8607 86.7098 16.2352 85.3678C14.6097 84.0258 13.6964 82.2058 13.6962 80.3079V62.9789C13.6961 61.9519 13.966 60.937 14.4872 60.0044C15.0084 59.0718 15.7684 58.2437 16.7149 57.5771L30.1309 48.13H65.2499L78.6659 57.5771C79.6123 58.2437 80.3722 59.0719 80.8933 60.0045C81.4143 60.9371 81.6841 61.9519 81.684 62.9789V87.464Z" fill="#FF901B"/>
<path d="M81.684 87.464H22.3641C20.0653 87.4638 17.8607 86.7098 16.2352 85.3678C14.6097 84.0258 13.6964 82.2058 13.6962 80.3079V62.9789C13.6961 61.9519 13.966 60.937 14.4872 60.0044C15.0084 59.0718 15.7684 58.2437 16.7149 57.5771L30.1309 48.13H65.2499L78.6659 57.5771C79.6123 58.2437 80.3722 59.0719 80.8933 60.0045C81.4143 60.9371 81.6841 61.9519 81.684 62.9789V87.464Z" fill="#70B64D"/>
<path d="M13.6962 76.6869V80.3079C13.6964 82.2057 14.6097 84.0258 16.2352 85.3678C17.8607 86.7098 20.0653 87.4638 22.3641 87.464H81.684V83.843H22.3641C20.0653 83.8428 17.8607 83.0888 16.2352 81.7468C14.6097 80.4048 13.6964 78.5847 13.6962 76.6869Z" fill="#64A644"/>
<path d="M78.6651 57.5771L65.2499 48.13H60.0062L73.4222 57.5771C74.3687 58.2437 75.1288 59.0718 75.65 60.0044C76.1712 60.937 76.4411 61.9519 76.4411 62.9789V87.464H81.684V62.9789C81.684 61.9519 81.4141 60.937 80.8929 60.0044C80.3717 59.0718 79.6116 58.2437 78.6651 57.5771Z" fill="#64A644"/>
<path d="M35.588 51.1119L47.628 58.2119L59.668 51.1119H35.588Z" fill="#FFF4E4"/>
<path d="M81.684 87.89H22.3641C19.9291 87.8877 17.5946 87.088 15.8729 85.6665C14.1511 84.2449 13.1827 82.3175 13.1802 80.3072V62.9788C13.1793 61.89 13.4649 60.8141 14.0173 59.8255C14.5696 58.8368 15.3756 57.9591 16.3794 57.2529L29.7954 47.8059C29.8888 47.7401 30.0076 47.704 30.1304 47.704H65.2497C65.3725 47.704 65.4912 47.7401 65.5846 47.8059L79.0006 57.2529C80.0044 57.959 80.8104 58.8368 81.3629 59.8254C81.9153 60.8141 82.2009 61.89 82.2 62.9788V87.464C82.2 87.577 82.1456 87.6853 82.0489 87.7652C81.9521 87.8451 81.8208 87.89 81.684 87.89ZM30.3205 48.556L17.05 57.9011C16.1596 58.5272 15.4447 59.3056 14.9547 60.1823C14.4647 61.059 14.2113 62.0132 14.212 62.9788V80.3072C14.2142 82.0916 15.0738 83.8025 16.6021 85.0643C18.1304 86.3262 20.2027 87.036 22.3641 87.038H81.168V62.9788C81.1687 62.0132 80.9153 61.0591 80.4253 60.1823C79.9352 59.3056 79.2203 58.5273 78.33 57.9011L65.0597 48.556H30.3205Z" fill="#171819"/>
<path d="M48.6029 77.2915H35.1238V87.464H48.6029V77.2915Z" fill="#FFDEC5"/>
<path d="M48.6029 85.2158H35.1238V87.464H48.6029V85.2158Z" fill="#EFB58E"/>
<path d="M48.6029 87.8899H35.1236C34.9868 87.8899 34.8555 87.8451 34.7587 87.7652C34.662 87.6853 34.6076 87.5769 34.6076 87.4639V77.2915C34.6076 77.1785 34.662 77.0701 34.7587 76.9903C34.8555 76.9104 34.9868 76.8655 35.1236 76.8655H48.6027C48.7396 76.8655 48.8708 76.9104 48.9676 76.9903C49.0644 77.0701 49.1187 77.1785 49.1187 77.2915V87.4639C49.1187 87.5769 49.0644 87.6852 48.9677 87.7651C48.8709 87.845 48.7397 87.8899 48.6029 87.8899ZM35.6396 87.0379H48.0867V77.7175H35.6396V87.0379Z" fill="#171819"/>
<path d="M36.964 64.8859C36.8821 64.8859 36.8014 64.8698 36.7285 64.839C36.6556 64.8081 36.5926 64.7634 36.5448 64.7084L25.1929 51.6444C25.113 51.5526 25.0806 51.4384 25.1028 51.3269C25.125 51.2153 25.2 51.1157 25.3112 51.0497C25.4224 50.9838 25.5608 50.9571 25.6959 50.9754C25.831 50.9937 25.9517 51.0556 26.0315 51.1474L36.8316 63.5763C37.3894 62.5213 38.1173 61.5333 38.9953 60.6391C40.903 58.7251 43.2528 57.7165 45.8688 57.6702C36.7143 52.1078 35.4549 51.5342 35.3722 51.4987C35.2499 51.4523 35.1545 51.3682 35.1062 51.2645C35.058 51.1607 35.0608 51.0455 35.1139 50.9435C35.1671 50.8414 35.2665 50.7605 35.3909 50.7181C35.5153 50.6756 35.6548 50.675 35.7798 50.7163C35.9346 50.767 37.243 51.3508 47.9347 57.8692C48.0283 57.9262 48.0958 58.0078 48.1262 58.1005C48.1566 58.1933 48.1482 58.2918 48.1022 58.3801C48.0562 58.4683 47.9755 58.5412 47.873 58.5868C47.7706 58.6324 47.6525 58.6481 47.5379 58.6313C44.5358 58.1911 41.9346 59.0418 39.8108 61.1617C38.8007 62.1898 38.0044 63.3491 37.4544 64.5926C37.4246 64.6673 37.3704 64.7338 37.2977 64.7847C37.225 64.8355 37.1366 64.8688 37.0424 64.8807C37.0165 64.884 36.9903 64.8858 36.964 64.8859Z" fill="#171819"/>
<path d="M58.354 64.7308C58.2452 64.7308 58.1392 64.7024 58.0511 64.6497C57.9631 64.5969 57.8974 64.5226 57.8636 64.4373C57.3136 63.1939 56.5173 62.0347 55.5072 61.0068C53.3833 58.8868 50.7835 58.0348 47.7801 58.4762C47.6655 58.4931 47.5473 58.4775 47.4448 58.4319C47.3424 58.3863 47.2615 58.3134 47.2156 58.2251C47.1696 58.1368 47.1611 58.0383 47.1915 57.9455C47.2219 57.8528 47.2894 57.7712 47.3831 57.7141C58.0748 51.1963 59.3842 50.612 59.538 50.5613C59.6629 50.52 59.8025 50.5206 59.9269 50.563C60.0513 50.6055 60.1507 50.6864 60.2039 50.7884C60.257 50.8905 60.2598 51.0057 60.2116 51.1094C60.1633 51.2132 60.0679 51.2972 59.9456 51.3437C59.8631 51.3792 58.604 51.9528 49.4492 57.5152C52.0655 57.5613 54.4146 58.57 56.3226 60.4841C57.2007 61.3783 57.9285 62.3663 58.4862 63.4214L69.2865 50.9924C69.326 50.947 69.376 50.9084 69.4336 50.8789C69.4911 50.8494 69.5552 50.8295 69.6221 50.8204C69.689 50.8114 69.7574 50.8133 69.8233 50.826C69.8893 50.8388 69.9517 50.8622 70.0067 50.8948C70.0618 50.9274 70.1085 50.9687 70.1442 51.0162C70.18 51.0638 70.204 51.1167 70.215 51.1719C70.226 51.2271 70.2237 51.2836 70.2082 51.338C70.1928 51.3925 70.1645 51.444 70.125 51.4894L58.7729 64.5534C58.7252 64.6083 58.6622 64.653 58.5894 64.6838C58.5165 64.7147 58.4358 64.7308 58.354 64.7308Z" fill="#171819"/>
<path d="M47.628 82.4831C47.4911 82.4831 47.3599 82.4382 47.2631 82.3583C47.1664 82.2784 47.112 82.1701 47.112 82.0571V58.212C47.112 58.099 47.1664 57.9907 47.2631 57.9108C47.3599 57.8309 47.4911 57.786 47.628 57.786C47.7648 57.786 47.8961 57.8309 47.9929 57.9108C48.0896 57.9907 48.144 58.099 48.144 58.212V82.0571C48.144 82.1701 48.0896 82.2784 47.9929 82.3583C47.8961 82.4382 47.7648 82.4831 47.628 82.4831Z" fill="#171819"/>
<path d="M51.842 66.022C52.4595 66.022 52.96 65.6088 52.96 65.099C52.96 64.5893 52.4595 64.176 51.842 64.176C51.2245 64.176 50.724 64.5893 50.724 65.099C50.724 65.6088 51.2245 66.022 51.842 66.022Z" fill="#171819"/>
<path d="M51.842 71.986C52.4595 71.986 52.96 71.5728 52.96 71.063C52.96 70.5533 52.4595 70.14 51.842 70.14C51.2245 70.14 50.724 70.5533 50.724 71.063C50.724 71.5728 51.2245 71.986 51.842 71.986Z" fill="#171819"/>
<path d="M46.1185 82.0569H94.412V85.1075C94.412 85.7938 94.0818 86.452 93.4939 86.9373C92.9061 87.4226 92.1088 87.6953 91.2775 87.6953H46.1185C45.2872 87.6953 44.4899 87.4226 43.9021 86.9373C43.3143 86.452 42.984 85.7938 42.984 85.1075V84.6447C42.984 83.9584 43.3143 83.3001 43.9021 82.8148C44.4899 82.3295 45.2872 82.0569 46.1185 82.0569Z" fill="#B0AEFA"/>
<path d="M91.2775 88.1214H46.1185C45.1507 88.1205 44.2228 87.8026 43.5384 87.2376C42.8541 86.6726 42.4691 85.9066 42.468 85.1076V84.6448C42.4691 83.8458 42.8541 83.0797 43.5385 82.5147C44.2228 81.9498 45.1507 81.632 46.1185 81.6311H94.412C94.5489 81.6311 94.6801 81.676 94.7769 81.7559C94.8737 81.8358 94.928 81.9441 94.928 82.0571V85.1076C94.9269 85.9066 94.542 86.6726 93.8576 87.2376C93.1732 87.8026 92.2453 88.1205 91.2775 88.1214ZM46.1185 82.4831C45.4243 82.4837 44.7587 82.7116 44.2678 83.1169C43.7769 83.5222 43.5008 84.0716 43.5 84.6448V85.1076C43.5008 85.6807 43.7769 86.2302 44.2678 86.6355C44.7587 87.0408 45.4243 87.2687 46.1185 87.2694H91.2775C91.9717 87.2687 92.6373 87.0408 93.1282 86.6355C93.6191 86.2302 93.8952 85.6807 93.896 85.1076V82.4831H46.1185Z" fill="#171819"/>
<path d="M124.445 87.7H81.3016C80.8376 87.7 80.3795 87.6139 79.9612 87.448C79.5429 87.2821 79.1752 87.0408 78.8851 86.7417C78.595 86.4427 78.3901 86.0937 78.2854 85.7204C78.1808 85.3472 78.1791 84.9593 78.2805 84.5855L86.3806 54.7144C87.0514 52.2396 89.5398 50.496 92.4006 50.496H132.856C136.195 50.496 138.655 53.277 137.872 56.1667L130.465 83.4816C129.793 85.9564 127.305 87.7 124.445 87.7Z" fill="#FFF4E4"/>
<path d="M124.445 87.7H81.3016C80.8376 87.7 80.3795 87.6139 79.9612 87.448C79.5429 87.2821 79.1752 87.0408 78.8851 86.7417C78.595 86.4427 78.3901 86.0937 78.2854 85.7204C78.1808 85.3472 78.1791 84.9593 78.2805 84.5855L86.3806 54.7144C87.0514 52.2396 89.5398 50.496 92.4006 50.496H132.856C136.195 50.496 138.655 53.277 137.872 56.1667L130.465 83.4816C129.793 85.9564 127.305 87.7 124.445 87.7Z" fill="#DCDBFF"/>
<path d="M126.501 86.399H83.357C82.893 86.399 82.4349 86.3129 82.0167 86.147C81.5984 85.9812 81.2306 85.7398 80.9406 85.4408C80.6505 85.1418 80.4455 84.7928 80.3409 84.4195C80.2362 84.0463 80.2345 83.6585 80.3358 83.2846L88.436 53.4134C88.6773 52.5075 89.1854 51.6647 89.9152 50.9595C89.0193 51.3225 88.2353 51.8494 87.6229 52.5C87.0104 53.1506 86.5857 53.9079 86.3808 54.7144L78.2806 84.5855C78.1792 84.9593 78.1809 85.3472 78.2856 85.7205C78.3902 86.0937 78.5952 86.4427 78.8852 86.7417C79.1753 87.0408 79.5431 87.2821 79.9614 87.448C80.3797 87.6139 80.8378 87.7 81.3018 87.7H124.445C125.312 87.6943 126.166 87.5337 126.95 87.229C127.734 86.9244 128.428 86.4831 128.985 85.9355C128.209 86.2402 127.36 86.3985 126.501 86.399Z" fill="#B0AEFA"/>
<path d="M81.76 84.5855L89.8612 54.7144C90.532 52.2396 93.0202 50.496 95.8802 50.496H92.3996C89.5396 50.496 87.0516 52.2396 86.3796 54.7144L78.2794 84.5855C78.178 84.9593 78.1797 85.3472 78.2844 85.7204C78.389 86.0937 78.594 86.4427 78.8841 86.7417C79.1741 87.0408 79.5419 87.2821 79.9602 87.448C80.3785 87.6139 80.8366 87.7 81.3006 87.7H84.7802C84.3162 87.6998 83.8582 87.6136 83.4401 87.4477C83.0219 87.2818 82.6543 87.0404 82.3643 86.7414C82.0744 86.4424 81.8695 86.0934 81.7649 85.7202C81.6603 85.3471 81.6586 84.9593 81.76 84.5855Z" fill="#B0AEFA"/>
<path d="M124.445 88.1261H81.3016C80.7603 88.1261 80.2258 88.0256 79.7378 87.8321C79.2498 87.6386 78.8207 87.357 78.4823 87.0082C78.1439 86.6593 77.9048 86.2521 77.7827 85.8167C77.6605 85.3813 77.6586 84.9287 77.7768 84.4926L85.878 54.6215C86.6047 51.9416 89.2867 50.0701 92.4006 50.0701H132.856C133.687 50.0751 134.506 50.235 135.251 50.5379C135.997 50.8407 136.65 51.2788 137.162 51.8192C137.756 52.4362 138.174 53.156 138.384 53.9249C138.594 54.6939 138.591 55.492 138.375 56.2599L130.968 83.5746C130.241 86.2544 127.559 88.1261 124.445 88.1261ZM92.3998 50.9221C89.7726 50.9221 87.5046 52.5199 86.8842 54.8075L78.7841 84.6787C78.6996 84.9903 78.701 85.3135 78.7882 85.6245C78.8754 85.9355 79.0462 86.2264 79.2879 86.4755C79.5296 86.7247 79.8361 86.9258 80.1847 87.0641C80.5332 87.2023 80.9149 87.2741 81.3016 87.2741H124.445C127.073 87.2741 129.341 85.6763 129.961 83.3885L137.368 56.0737C137.55 55.4305 137.553 54.7616 137.378 54.1171C137.203 53.4727 136.854 52.8691 136.357 52.3517C135.941 51.9112 135.41 51.5538 134.804 51.3063C134.198 51.0587 133.532 50.9274 132.856 50.9221H92.3998Z" fill="#171819"/>
<path d="M111.69 66.6478C111.715 66.4239 111.767 66.2025 111.845 65.9871C111.528 65.9207 111.201 65.8923 110.874 65.9027C108.602 65.9676 106.398 67.725 105.951 69.8278C105.504 71.9305 106.983 73.5824 109.256 73.5173C111.417 73.4556 113.515 71.862 114.099 69.8963C113.321 69.6493 112.663 69.197 112.227 68.6097C111.791 68.0223 111.603 67.3327 111.69 66.6478Z" fill="white"/>
<path d="M56.6558 79.0419H59.1484C59.3882 79.0418 59.6258 79.0807 59.8474 79.1565C60.0691 79.2322 60.2704 79.3432 60.4401 79.4832C60.6097 79.6232 60.7443 79.7895 60.8361 79.9724C60.9279 80.1554 60.9752 80.3515 60.9752 80.5495C60.9752 80.9493 60.7828 81.3327 60.4404 81.6154C60.0979 81.8981 59.6335 82.057 59.1492 82.057H53.7512" fill="#FFDEC5"/>
<path d="M59.1484 82.4831H53.7512C53.6143 82.4831 53.4831 82.4382 53.3863 82.3583C53.2896 82.2784 53.2352 82.1701 53.2352 82.0571C53.2352 81.9441 53.2896 81.8357 53.3863 81.7558C53.4831 81.676 53.6143 81.6311 53.7512 81.6311H59.1487C59.4962 81.6311 59.8294 81.5171 60.0751 81.3143C60.3208 81.1114 60.4589 80.8363 60.4589 80.5495C60.4589 80.2626 60.3208 79.9875 60.0751 79.7846C59.8294 79.5818 59.4962 79.4678 59.1487 79.4678H55.8869C55.7501 79.4678 55.6188 79.423 55.5221 79.3431C55.4253 79.2632 55.3709 79.1548 55.3709 79.0418C55.3709 78.9289 55.4253 78.8205 55.5221 78.7406C55.6188 78.6607 55.7501 78.6158 55.8869 78.6158H59.1484C59.7696 78.6158 60.3653 78.8196 60.8045 79.1822C61.2437 79.5448 61.4905 80.0366 61.4905 80.5495C61.4905 81.0623 61.2437 81.5541 60.8045 81.9167C60.3653 82.2794 59.7696 82.4831 59.1484 82.4831Z" fill="#171819"/>
<path d="M46.0774 77.2915H54.9225C55.6879 77.2915 56.422 77.5426 56.9633 77.9894C57.5046 78.4363 57.8086 79.0423 57.8086 79.6743C57.8086 80.3062 57.5045 80.9122 56.9633 81.359C56.422 81.8059 55.6879 82.0569 54.9225 82.0569H46.1185" fill="#FFDEC5"/>
<path d="M54.9225 82.483H46.1186C45.9817 82.483 45.8505 82.4381 45.7537 82.3582C45.6569 82.2783 45.6026 82.17 45.6026 82.057C45.6026 81.944 45.6569 81.8357 45.7537 81.7558C45.8505 81.6759 45.9817 81.631 46.1186 81.631H54.9225C55.5512 81.631 56.154 81.4248 56.5985 81.0579C57.043 80.6909 57.2927 80.1932 57.2927 79.6742C57.2927 79.1553 57.043 78.6576 56.5985 78.2906C56.154 77.9236 55.5512 77.7175 54.9225 77.7175H46.0773C45.9404 77.7175 45.8092 77.6726 45.7124 77.5927C45.6156 77.5128 45.5613 77.4045 45.5613 77.2915C45.5613 77.1785 45.6156 77.0701 45.7124 76.9903C45.8092 76.9104 45.9404 76.8655 46.0773 76.8655H54.9225C55.8249 76.8655 56.6902 77.1614 57.3282 77.6881C57.9663 78.2149 58.3247 78.9293 58.3247 79.6742C58.3247 80.4192 57.9663 81.1336 57.3282 81.6603C56.6902 82.1871 55.8249 82.483 54.9225 82.483Z" fill="#171819"/>
<path d="M51.5161 82.4831H46.1185C45.9817 82.4831 45.8504 82.4382 45.7537 82.3583C45.6569 82.2784 45.6025 82.1701 45.6025 82.0571C45.6025 81.9441 45.6569 81.8357 45.7537 81.7558C45.8504 81.676 45.9817 81.6311 46.1185 81.6311H51.5161C51.8635 81.6311 52.1968 81.5171 52.4425 81.3143C52.6882 81.1114 52.8262 80.8363 52.8262 80.5495C52.8262 80.2626 52.6882 79.9875 52.4425 79.7846C52.1968 79.5818 51.8635 79.4678 51.5161 79.4678H47.8C47.6632 79.4678 47.5319 79.423 47.4351 79.3431C47.3384 79.2632 47.284 79.1548 47.284 79.0418C47.284 78.9289 47.3384 78.8205 47.4351 78.7406C47.5319 78.6607 47.6632 78.6158 47.8 78.6158H51.5161C52.1372 78.6158 52.733 78.8196 53.1722 79.1822C53.6114 79.5448 53.8582 80.0366 53.8582 80.5495C53.8582 81.0623 53.6114 81.5541 53.1722 81.9167C52.733 82.2794 52.1372 82.4831 51.5161 82.4831Z" fill="#171819"/>
<path d="M35.1236 87.89C34.9868 87.89 34.8555 87.8451 34.7588 87.7653C34.662 87.6854 34.6076 87.577 34.6076 87.464V75.4694H27.9935C27.8567 75.4694 27.7254 75.4246 27.6287 75.3447C27.5319 75.2648 27.4775 75.1564 27.4775 75.0434C27.4775 74.9304 27.5319 74.8221 27.6287 74.7422C27.7254 74.6623 27.8567 74.6174 27.9935 74.6174H35.1236C35.2605 74.6174 35.3917 74.6623 35.4885 74.7422C35.5853 74.8221 35.6396 74.9304 35.6396 75.0434V87.464C35.6396 87.577 35.5853 87.6854 35.4885 87.7653C35.3917 87.8451 35.2605 87.89 35.1236 87.89Z" fill="#171819"/>
<path d="M47.8477 52.9581H46.9784C34.7505 52.9581 24.838 47.4725 24.838 37.3774V14.644H69.988V37.3774C69.988 47.4725 60.0755 52.9581 47.8477 52.9581Z" fill="#FFDEC5"/>
<path d="M24.924 19.4307C24.924 19.4307 28.9117 25.1169 39.8725 25.4333C56.6296 25.9168 63.243 18.7714 63.243 18.7714L24.924 19.4307Z" fill="#EFB58E"/>
<path d="M47.8477 50.4952H46.9784C34.7505 50.4952 24.838 45.5829 24.838 35.4878V37.3774C24.838 47.4725 34.7505 52.9581 46.9784 52.9581H47.8477C60.0755 52.9581 69.988 47.4725 69.988 37.3774V35.4878C69.988 45.5829 60.0755 50.4952 47.8477 50.4952Z" fill="#EFB58E"/>
<path d="M47.8477 53.384H46.9784C40.6956 53.384 35.0216 51.9289 31.0013 49.2867C26.6325 46.4148 24.322 42.2965 24.322 37.3774V14.644C24.322 14.531 24.3764 14.4227 24.4732 14.3428C24.5699 14.2629 24.7012 14.218 24.838 14.218H69.988C70.1249 14.218 70.2561 14.2629 70.3529 14.3428C70.4497 14.4227 70.504 14.531 70.504 14.644V37.3774C70.504 42.2965 68.1942 46.4148 63.8247 49.2867C59.8044 51.9289 54.1305 53.384 47.8477 53.384ZM25.354 15.07V37.3774C25.354 42.0279 27.5291 45.9155 31.6441 48.6201C35.4824 51.1427 40.9283 52.532 46.9784 52.532H47.8477C53.8978 52.532 59.3436 51.1427 63.182 48.6201C67.2969 45.9155 69.472 42.0279 69.472 37.3774V15.07H25.354Z" fill="#171819"/>
<path d="M30.944 25.836C28.708 32.226 24.924 30.806 24.924 30.806V13.766H31.288C31.288 13.766 32.3761 21.7434 30.944 25.836Z" fill="#FF9472"/>
<path d="M31.418 23.8506C31.6293 22.3452 31.7167 20.8297 31.6798 19.3145L24.924 19.4308C24.924 19.4308 26.7749 22.0683 31.418 23.8506Z" fill="#EF7756"/>
<path d="M25.8473 31.3654C25.4584 31.3708 25.072 31.3125 24.7106 31.1938C24.6204 31.1599 24.5439 31.1054 24.4902 31.0366C24.4366 30.9678 24.408 30.8878 24.408 30.806V13.766C24.408 13.653 24.4624 13.5446 24.5592 13.4647C24.6559 13.3848 24.7872 13.34 24.924 13.34H31.288C31.4149 13.34 31.5373 13.3786 31.6319 13.4484C31.7265 13.5182 31.7866 13.6143 31.8007 13.7184C31.8456 14.0474 32.8844 21.8274 31.4396 25.9543L30.944 25.836L31.4397 25.9543C30.4806 28.6949 29.1112 30.4206 27.3692 31.0827C26.8928 31.2672 26.3735 31.3637 25.8473 31.3654ZM25.44 30.4866C25.9602 30.5574 26.4942 30.4914 26.9663 30.2977C27.9593 29.9098 29.3697 28.8002 30.4483 25.7177C31.6601 22.2546 31.0121 15.815 30.8219 14.192H25.44V30.4866Z" fill="#171819"/>
<path d="M64.4152 5.29278C61.1397 2.84712 56.2819 0.645974 49.4856 0.80757C49.3912 1.91162 50.3479 4.31497 52.0625 5.48803C45.5922 0.522292 31.684 0.475433 27.2049 4.19697C27.8637 5.92042 29.6989 8.11148 32.56 9.2489C24.4314 7.69954 18.7439 11.0414 18.2769 12.2373C19.7006 15.1754 22.935 18.1986 24.9242 19.4307C31.5956 23.5629 50.023 25.1662 61.4316 19.6971C62.0852 19.3847 62.6858 19.0756 63.2432 18.7714C63.1805 21.1684 63.2996 23.926 63.9682 25.8361C66.2042 32.2261 69.9882 30.8061 69.9882 30.8061V15.7569C69.996 13.7881 69.5041 11.8398 68.5442 10.0375C67.5843 8.23524 66.1778 6.61895 64.4152 5.29278Z" fill="#FF9472"/>
<path d="M52.0623 5.50163V5.48743C51.6576 5.01698 50.5554 4.62734 48.7809 3.61431C41.7074 0.589706 31.0257 1.02153 27.2047 4.19651C27.3034 4.45072 27.4194 4.70013 27.5522 4.94357C32.6482 2.23733 43.5225 2.04677 49.777 5.91428C50.5864 6.41568 52.0656 6.33744 52.0623 5.50163Z" fill="#EF7756"/>
<path d="M32.6327 9.48044C32.6305 9.39961 32.6056 9.3203 32.5598 9.24883C32.233 9.18905 31.0486 9.09917 28.53 8.84967C22.601 8.80707 18.6618 11.2508 18.2767 12.2372C18.3529 12.3943 18.4353 12.5518 18.5213 12.7091C20.5224 11.3834 25.3728 9.63266 31.2225 10.4939C31.3993 10.5212 31.5812 10.5151 31.7548 10.4761C31.9283 10.4372 32.0889 10.3663 32.2245 10.2688C32.3602 10.1713 32.4674 10.0497 32.5381 9.91323C32.6087 9.7767 32.6411 9.62875 32.6327 9.48044Z" fill="#EF7756"/>
<path d="M64.4152 5.29278C61.1396 2.84712 56.2818 0.645974 49.4856 0.80757C49.4751 1.33617 49.572 1.86249 49.7725 2.3646C54.6449 2.44483 58.8721 3.89891 61.3419 6.0025C66.1494 10.0974 63.3018 16.1413 61.1886 18.3024C58.6444 20.9047 57.095 21.3547 57.095 21.3547C57.095 21.3547 62.2094 20.1448 63.2426 18.7714C62.3826 22.4962 64.508 30.3775 69.0992 30.9408C69.4031 30.9428 69.7047 30.8971 69.988 30.8061V15.7569C69.9957 13.7881 69.5038 11.8398 68.544 10.0375C67.5842 8.23526 66.1777 6.61896 64.4152 5.29278Z" fill="#EF7756"/>
<path d="M69.0647 31.3655C68.5385 31.3637 68.0192 31.2672 67.5428 31.0828C65.8008 30.4206 64.4313 28.6952 63.4723 25.9543C62.9459 24.4491 62.691 22.3006 62.7134 19.5578C62.3794 19.7295 62.0374 19.8986 61.6903 20.0656C56.3952 22.6038 49.1815 23.8554 41.3799 23.5901C34.4609 23.3547 28.0368 21.8914 24.6142 19.7715C22.6904 18.5797 19.3035 15.5034 17.7977 12.3954C17.753 12.3032 17.7487 12.201 17.7856 12.1065C18.298 10.7942 23.1924 7.92386 30.2023 8.49654C28.3447 7.22295 27.1896 5.57291 26.7124 4.32515C26.6841 4.25103 26.6809 4.17193 26.7032 4.09641C26.7255 4.0209 26.7723 3.95185 26.8387 3.89674C29.0867 2.02859 33.7101 0.980342 38.9084 1.15898C43.0364 1.30098 46.8376 2.16079 49.7799 3.5788C49.2006 2.53098 48.9133 1.4478 48.9715 0.777565C48.9805 0.672172 49.0366 0.573311 49.129 0.500178C49.2214 0.427045 49.3434 0.384858 49.4713 0.381811C49.7107 0.375989 49.9493 0.373291 50.1842 0.373291C58.2796 0.373291 63.5772 3.69609 66.6231 6.52913C69.1361 8.88053 70.517 11.9113 70.504 15.0471V30.806C70.504 30.8878 70.4754 30.9679 70.4218 31.0367C70.3681 31.1054 70.2916 31.16 70.2014 31.1938C69.84 31.3125 69.4536 31.3709 69.0647 31.3655ZM63.243 18.3454C63.3117 18.3454 63.3797 18.3567 63.443 18.3787C63.5064 18.4006 63.5637 18.4328 63.6118 18.4733C63.6599 18.5139 63.6976 18.5619 63.7229 18.6147C63.7482 18.6674 63.7605 18.7238 63.759 18.7805C63.6806 21.7767 63.9243 24.1756 64.4642 25.7177C65.5428 28.8003 66.9532 29.9099 67.9462 30.2978C68.4181 30.4915 68.952 30.5575 69.472 30.4864V15.0471C69.4846 12.1198 68.196 9.29042 65.8503 7.09515C62.9253 4.37372 57.8179 1.17517 50.0091 1.22629C50.1211 2.26672 50.8874 3.96064 52.1173 4.95577C52.2181 5.02857 52.317 5.10218 52.414 5.17658C52.5132 5.25192 52.5727 5.35628 52.5799 5.46737C52.587 5.57845 52.5413 5.68744 52.4524 5.77104C52.3635 5.85464 52.2385 5.90622 52.1042 5.91476C51.9698 5.92329 51.8368 5.88811 51.7334 5.81672C51.6296 5.74562 51.5284 5.67055 51.4299 5.59151C48.5434 3.51689 43.8837 2.18351 38.8656 2.01083C34.1256 1.84711 29.9316 2.72737 27.7996 4.31791C28.4575 5.80763 30.1044 7.80046 32.784 8.8656C32.8984 8.91109 32.9884 8.98978 33.0369 9.08662C33.0854 9.18347 33.089 9.29167 33.0469 9.39055C33.0048 9.48942 32.9201 9.57202 32.8089 9.62256C32.6977 9.6731 32.5678 9.68803 32.4442 9.66449C28.1591 8.84771 24.7967 9.45689 22.7305 10.1118C20.469 10.8288 19.1709 11.78 18.8384 12.2455C20.308 15.1433 23.4403 17.9794 25.2341 19.0899C28.4981 21.1118 34.7015 22.51 41.4227 22.7393C49.0341 22.9986 56.0453 21.787 61.1725 19.3292C61.7908 19.0328 62.3918 18.7257 62.9588 18.4164C63.0431 18.3702 63.1419 18.3455 63.243 18.3454Z" fill="#171819"/>
<path d="M56.7321 21.8884C56.6081 21.8885 56.4882 21.8517 56.3944 21.7848C56.3005 21.7179 56.239 21.6254 56.221 21.5241C56.2031 21.4228 56.2299 21.3196 56.2966 21.2333C56.3633 21.147 56.4654 21.0834 56.5842 21.0542C58.8703 20.488 61.0202 19.5992 62.9388 18.4272C64.2876 17.6136 66.2068 15.8788 66.2267 15.8614C66.3191 15.7786 66.4475 15.7293 66.5837 15.7244C66.7199 15.7195 66.853 15.7593 66.9538 15.8351C67.0545 15.9109 67.1149 16.0166 67.1216 16.129C67.1283 16.2415 67.0808 16.3515 66.9895 16.4352C66.9084 16.5089 64.9809 18.2506 63.5475 19.1151C61.5345 20.3446 59.2787 21.2769 56.8802 21.8707C56.8322 21.8825 56.7823 21.8885 56.7321 21.8884Z" fill="#171819"/>
<path d="M42.6985 31.5545C42.6685 31.5545 42.6385 31.5523 42.609 31.548C40.5626 31.2525 38.4696 31.2525 36.4232 31.548C36.2894 31.5655 36.1527 31.5388 36.0425 31.4738C35.9323 31.4088 35.8575 31.3106 35.8342 31.2004C35.8109 31.0903 35.8411 30.977 35.9181 30.885C35.9951 30.793 36.1128 30.7297 36.2459 30.7088C38.4096 30.3961 40.6227 30.3961 42.7865 30.7088C42.9138 30.727 43.0282 30.7839 43.1071 30.8684C43.186 30.9529 43.2236 31.0587 43.2126 31.165C43.2015 31.2713 43.1426 31.3703 43.0474 31.4424C42.9522 31.5145 42.8277 31.5545 42.6985 31.5545Z" fill="#171819"/>
<path d="M40.872 34.511C41.7415 34.511 42.4463 33.929 42.4463 33.2112C42.4463 32.4934 41.7415 31.9115 40.872 31.9115C40.0025 31.9115 39.2977 32.4934 39.2977 33.2112C39.2977 33.929 40.0025 34.511 40.872 34.511Z" fill="#171819"/>
<path d="M58.922 31.5545C58.8921 31.5545 58.8622 31.5523 58.8327 31.548C56.7864 31.2523 54.6933 31.2523 52.6469 31.548C52.5798 31.5584 52.5107 31.5578 52.4439 31.5461C52.377 31.5343 52.3136 31.5117 52.2574 31.4796C52.2012 31.4475 52.1533 31.4065 52.1165 31.3589C52.0796 31.3114 52.0546 31.2583 52.0428 31.2027C52.0311 31.1471 52.0328 31.0901 52.048 31.035C52.0631 30.98 52.0913 30.928 52.131 30.8821C52.1707 30.8361 52.2211 30.7971 52.2792 30.7674C52.3373 30.7376 52.4019 30.7177 52.4694 30.7088C54.6332 30.3961 56.8463 30.3961 59.0101 30.7088C59.1374 30.727 59.2518 30.7839 59.3307 30.8684C59.4096 30.9529 59.4472 31.0587 59.4361 31.165C59.4251 31.2713 59.3661 31.3702 59.2709 31.4424C59.1757 31.5145 59.0512 31.5545 58.922 31.5545Z" fill="#171819"/>
<path d="M57.0954 34.511C57.9649 34.511 58.6697 33.929 58.6697 33.2112C58.6697 32.4934 57.9649 31.9115 57.0954 31.9115C56.2259 31.9115 55.5211 32.4934 55.5211 33.2112C55.5211 33.929 56.2259 34.511 57.0954 34.511Z" fill="#171819"/>
<path d="M47.6899 40.4429C47.0256 40.4413 46.3732 40.2976 45.7963 40.0258C45.2194 39.754 44.7376 39.3634 44.398 38.8921C44.3296 38.795 44.3104 38.6794 44.3447 38.5707C44.379 38.4619 44.4639 38.3687 44.5811 38.3115C44.6982 38.2542 44.838 38.2374 44.97 38.2649C45.102 38.2923 45.2155 38.3616 45.2859 38.4579C45.5327 38.803 45.8843 39.0889 46.3059 39.2876C46.7275 39.4863 47.2045 39.5908 47.69 39.5908C48.1754 39.5908 48.6525 39.4863 49.0741 39.2876C49.4957 39.0889 49.8473 38.803 50.0941 38.4579C50.1279 38.4085 50.1732 38.3653 50.2275 38.3306C50.2818 38.2959 50.3439 38.2705 50.4102 38.2559C50.4765 38.2413 50.5457 38.2377 50.6137 38.2454C50.6817 38.2532 50.7472 38.272 50.8062 38.3009C50.8653 38.3297 50.9168 38.3681 50.9577 38.4136C50.9986 38.4591 51.0281 38.5108 51.0445 38.5659C51.0608 38.6209 51.0637 38.6781 51.053 38.734C51.0423 38.79 51.0181 38.8436 50.982 38.8918C50.6425 39.3632 50.1607 39.7539 49.5837 40.0258C49.0067 40.2976 48.3542 40.4413 47.6899 40.4429Z" fill="#171819"/>
<path d="M53.6839 43.3075C53.6839 45.4602 50.9725 47.2054 47.628 47.2054C44.2834 47.2054 41.572 45.4602 41.572 43.3075H53.6839Z" fill="white"/>
<path d="M47.628 47.6313C44.0043 47.6313 41.056 45.6918 41.056 43.3077C41.056 43.1947 41.1104 43.0864 41.2072 43.0065C41.3039 42.9266 41.4352 42.8817 41.572 42.8817H53.6839C53.8208 42.8817 53.952 42.9266 54.0488 43.0065C54.1456 43.0864 54.1999 43.1947 54.1999 43.3077C54.1999 45.6918 51.2517 47.6313 47.628 47.6313ZM42.1295 43.7337C42.4656 45.4478 44.8032 46.7793 47.628 46.7793C50.4527 46.7793 52.7904 45.4478 53.1265 43.7337H42.1295Z" fill="#171819"/>
<path d="M24.838 25.4371C24.838 25.4371 20.8102 25.1918 20.8102 28.5647C20.8102 32.159 21.8173 34.3696 24.838 34.4577V25.4371Z" fill="#FFDEC5"/>
<path d="M24.838 34.8839C24.8319 34.8839 24.8259 34.8839 24.8197 34.8839C20.7635 34.7652 20.2943 31.2203 20.2943 28.5649C20.2943 27.4403 20.7057 26.5545 21.517 25.9322C22.86 24.9023 24.795 25.0074 24.876 25.0125C25.0059 25.0204 25.1273 25.0686 25.216 25.1474C25.3046 25.2261 25.3539 25.3297 25.354 25.4372V34.458C25.354 34.571 25.2996 34.6794 25.2028 34.7593C25.1061 34.8392 24.9748 34.884 24.838 34.884V34.8839ZM24.322 25.8716C23.7764 25.9085 22.8756 26.0502 22.2143 26.5603C21.625 27.0147 21.3262 27.6892 21.3262 28.5648C21.3262 32.8096 22.8299 33.7946 24.322 33.9911V25.8716Z" fill="#171819"/>
<path d="M69.988 25.4371C69.988 25.4371 74.0157 25.1918 74.0157 28.5647C74.0157 32.159 73.0086 34.3696 69.988 34.4577V25.4371Z" fill="#FFDEC5"/>
<path d="M69.988 34.8839C69.8511 34.8839 69.7199 34.839 69.6231 34.7592C69.5263 34.6793 69.472 34.5709 69.472 34.4579V25.4371C69.472 25.3295 69.5213 25.226 69.61 25.1472C69.6986 25.0685 69.8201 25.0203 69.95 25.0124C70.0312 25.007 71.9658 24.902 73.309 25.9321C74.1203 26.5543 74.5317 27.4401 74.5317 28.5648C74.5317 31.2202 74.0625 34.7649 70.0062 34.8838C70 34.8839 69.994 34.8839 69.988 34.8839ZM70.504 25.87V33.9912C71.9961 33.7946 73.4997 32.8096 73.4997 28.5648C73.4997 27.6865 73.1992 27.0107 72.6065 26.5563C71.9404 26.0454 71.0458 25.9055 70.504 25.87Z" fill="#171819"/>
<path d="M129.371 23.9332H105.812C104.899 23.9332 104.025 24.2324 103.379 24.765C102.734 25.2976 102.372 26.02 102.372 26.7732V37.3394C102.372 38.0927 102.734 38.815 103.379 39.3476C104.025 39.8802 104.899 40.1795 105.812 40.1795H113.674L117.591 44.2122L121.508 40.1795H129.371C130.283 40.1795 131.158 39.8802 131.803 39.3476C132.449 38.815 132.811 38.0927 132.811 37.3394V26.7732C132.811 26.02 132.449 25.2976 131.803 24.765C131.158 24.2324 130.283 23.9332 129.371 23.9332Z" fill="#FF4F7C"/>
<path d="M117.591 44.6368C117.514 44.6368 117.438 44.6225 117.368 44.5949C117.298 44.5673 117.237 44.5271 117.189 44.4773L113.427 40.6046H105.812C104.763 40.6036 103.757 40.2592 103.016 39.6469C102.274 39.0346 101.857 38.2045 101.856 37.3386V26.7732C101.857 25.9073 102.274 25.0772 103.016 24.4649C103.757 23.8526 104.763 23.5082 105.812 23.5072H129.371C130.42 23.5082 131.425 23.8526 132.167 24.4649C132.909 25.0772 133.326 25.9073 133.327 26.7732V37.3394C133.326 38.2053 132.909 39.0355 132.167 39.6478C131.425 40.26 130.42 40.6044 129.371 40.6054H121.756L117.993 44.4778C117.945 44.5274 117.884 44.5674 117.814 44.5949C117.745 44.6225 117.669 44.6368 117.591 44.6368ZM105.812 24.3592C105.037 24.3599 104.293 24.6145 103.745 25.067C103.197 25.5196 102.889 26.1332 102.888 26.7732V37.3394C102.889 37.9794 103.197 38.593 103.745 39.0456C104.293 39.4981 105.037 39.7527 105.812 39.7534H113.674C113.752 39.7534 113.828 39.7677 113.898 39.7953C113.967 39.8229 114.029 39.8631 114.077 39.9129L117.591 43.5308L121.106 39.9125C121.155 39.8627 121.216 39.8225 121.286 39.7949C121.355 39.7673 121.432 39.753 121.509 39.753H129.371C130.146 39.7523 130.889 39.4977 131.438 39.0452C131.986 38.5926 132.294 37.979 132.295 37.339V26.7732C132.294 26.1332 131.986 25.5196 131.438 25.067C130.889 24.6145 130.146 24.3599 129.371 24.3592H105.812Z" fill="#171819"/>
<path d="M111.271 33.8793C112.193 33.8793 112.941 33.2623 112.941 32.5012C112.941 31.74 112.193 31.123 111.271 31.123C110.35 31.123 109.602 31.74 109.602 32.5012C109.602 33.2623 110.35 33.8793 111.271 33.8793Z" fill="white"/>
<path d="M124.356 33.8793C125.278 33.8793 126.025 33.2623 126.025 32.5012C126.025 31.74 125.278 31.123 124.356 31.123C123.434 31.123 122.687 31.74 122.687 32.5012C122.687 33.2623 123.434 33.8793 124.356 33.8793Z" fill="white"/>
<path d="M117.814 33.8793C118.736 33.8793 119.483 33.2623 119.483 32.5012C119.483 31.74 118.736 31.123 117.814 31.123C116.892 31.123 116.144 31.74 116.144 32.5012C116.144 33.2623 116.892 33.8793 117.814 33.8793Z" fill="white"/>
</g>
<defs>
<clipPath id="clip0_90_16">
<rect width="139" height="94" fill="white"/>
</clipPath>
</defs>
</svg>
