<svg width="148" height="77" viewBox="0 0 148 77" fill="none" xmlns="http://www.w3.org/2000/svg">
<g clip-path="url(#clip0_91_0)">
<g opacity="0.4">
<path opacity="0.4" d="M67.1136 38.415C65.5802 38.4133 64.1102 37.8034 63.0259 36.7191C61.9417 35.6349 61.3318 34.1648 61.33 32.6314V10.0128C61.34 8.12786 62.0958 6.32351 63.4322 4.99416C64.7686 3.66481 66.5769 2.91858 68.4619 2.91858C70.3469 2.91858 72.1552 3.66481 73.4916 4.99416C74.828 6.32351 75.5838 8.12786 75.5938 10.0128V30.2462C75.5938 30.4584 75.5095 30.6619 75.3595 30.8119C75.2095 30.9619 75.006 31.0462 74.7938 31.0462C74.5816 31.0462 74.3782 30.9619 74.2281 30.8119C74.0781 30.6619 73.9938 30.4584 73.9938 30.2462V10.0128C73.985 8.55142 73.3983 7.15289 72.3619 6.12262C71.3254 5.09235 69.9233 4.51407 68.4619 4.51407C67.0005 4.51407 65.5985 5.09235 64.562 6.12262C63.5255 7.15289 62.9388 8.55142 62.93 10.0128V32.6314C62.9377 33.736 63.3818 34.7927 64.1656 35.5711C64.9493 36.3495 66.0091 36.7863 67.1137 36.7863C68.2183 36.7863 69.2781 36.3495 70.0619 35.5711C70.8456 34.7927 71.2898 33.736 71.2974 32.6314V12.36C71.2974 11.8084 71.0783 11.2793 70.6882 10.8892C70.2981 10.4992 69.7691 10.28 69.2174 10.28C68.6658 10.28 68.1367 10.4992 67.7466 10.8892C67.3566 11.2793 67.1374 11.8084 67.1374 12.36V29.9026C67.1374 30.1148 67.0531 30.3183 66.9031 30.4683C66.7531 30.6183 66.5496 30.7026 66.3374 30.7026C66.1252 30.7026 65.9218 30.6183 65.7717 30.4683C65.6217 30.3183 65.5374 30.1148 65.5374 29.9026V12.36C65.5374 11.384 65.9251 10.448 66.6153 9.75786C67.3054 9.06773 68.2414 8.68001 69.2174 8.68001C70.1934 8.68001 71.1294 9.06773 71.8196 9.75786C72.5097 10.448 72.8974 11.384 72.8974 12.36V32.6314C72.8957 34.1648 72.2857 35.6349 71.2014 36.7192C70.1171 37.8034 68.647 38.4133 67.1136 38.415Z" fill="#2B5621"/>
</g>
<g opacity="0.4">
<path opacity="0.4" d="M79.785 70.83C78.8716 70.8304 77.9712 70.6147 77.1572 70.2004C76.3432 69.786 75.6389 69.1849 75.1018 68.4462C74.5647 67.7075 74.2101 66.8521 74.067 65.95C73.9238 65.048 73.9963 64.1248 74.2784 63.2562L81.2678 41.7448C81.8568 39.9514 83.1327 38.4647 84.8159 37.6105C86.4991 36.7562 88.4523 36.604 90.2475 37.1873C92.0427 37.7706 93.5335 39.0418 94.3931 40.7223C95.2528 42.4028 95.4111 44.3555 94.8336 46.1526L88.581 65.3958C88.5154 65.5976 88.3723 65.765 88.1832 65.8614C87.9942 65.9577 87.7746 65.9749 87.5728 65.9094C87.371 65.8438 87.2035 65.7007 87.1072 65.5116C87.0108 65.3225 86.9936 65.103 87.0592 64.9011L93.3118 45.658C93.7556 44.2652 93.6301 42.7534 92.9627 41.4529C92.2954 40.1523 91.1404 39.1688 89.7501 38.7172C88.3599 38.2656 86.8474 38.3826 85.5431 39.0427C84.2389 39.7028 83.2489 40.8522 82.7896 42.24L75.8 63.7508C75.6275 64.274 75.56 64.8261 75.6015 65.3755C75.6429 65.9248 75.7924 66.4606 76.0415 66.952C76.2905 67.4434 76.6342 67.8808 77.0527 68.239C77.4713 68.5973 77.9564 68.8694 78.4804 69.0396C79.0043 69.2098 79.5567 69.2749 80.1059 69.2311C80.6551 69.1873 81.1902 69.0354 81.6806 68.7843C82.1709 68.5331 82.6068 68.1876 82.9632 67.7675C83.3196 67.3474 83.5896 66.861 83.7576 66.3364L90.022 47.0563C90.1836 46.5342 90.1331 45.9694 89.8816 45.4841C89.63 44.9989 89.1975 44.6321 88.6777 44.4632C88.1579 44.2943 87.5924 44.3368 87.1037 44.5815C86.6149 44.8263 86.2422 45.2535 86.066 45.771L80.646 62.4552C80.5804 62.657 80.4374 62.8245 80.2483 62.9209C80.0592 63.0172 79.8396 63.0345 79.6378 62.9689C79.436 62.9034 79.2684 62.7603 79.1721 62.5713C79.0757 62.3822 79.0584 62.1626 79.124 61.9608L84.545 45.2766C84.8465 44.3483 85.5045 43.5779 86.3742 43.1347C87.2438 42.6916 88.2538 42.6121 89.1821 42.9137C90.1103 43.2152 90.8808 43.8732 91.3239 44.7428C91.767 45.6125 91.8465 46.6225 91.545 47.5508L85.2804 66.8307C84.9026 67.9912 84.1679 69.0027 83.1813 69.721C82.1947 70.4393 81.0064 70.8277 79.786 70.8307L79.785 70.83Z" fill="#2B5621"/>
</g>
<g style="mix-blend-mode:multiply" opacity="0.18">
<g style="mix-blend-mode:multiply" opacity="0.18">
<path d="M14.3378 64.8187H6.01779C5.90021 64.8188 5.78408 64.7929 5.67765 64.7429C5.57122 64.6929 5.47712 64.6201 5.40203 64.5296C5.32695 64.4392 5.27273 64.3332 5.24323 64.2194C5.21374 64.1056 5.20969 63.9867 5.23139 63.8711L5.57039 62.0629C5.71418 61.2981 6.12066 60.6076 6.71957 60.1107C7.31848 59.6138 8.07218 59.3417 8.85039 59.3416H11.506C12.2842 59.3417 13.0379 59.6138 13.6368 60.1107C14.2357 60.6076 14.6422 61.2981 14.786 62.0629L15.126 63.8711C15.1477 63.9867 15.1436 64.1056 15.1142 64.2194C15.0847 64.3332 15.0304 64.4392 14.9553 64.5296C14.8803 64.6201 14.7862 64.6929 14.6797 64.7429C14.5733 64.7929 14.4572 64.8188 14.3396 64.8187H14.3378ZM6.98239 63.2187H13.374L13.2124 62.3587C13.1377 61.9608 12.9262 61.6014 12.6146 61.3428C12.3031 61.0842 11.9109 60.9425 11.506 60.9423H8.85019C8.44526 60.9425 8.05311 61.0842 7.74154 61.3428C7.42996 61.6014 7.21853 61.9608 7.14379 62.3587L6.98239 63.2187Z" fill="#351915"/>
</g>
</g>
<path d="M13.8964 64.9018H5.57639L5.91638 63.0936C6.02544 62.5122 6.33429 61.9872 6.78949 61.6094C7.2447 61.2316 7.81764 61.0248 8.40919 61.0248H11.0652C11.6567 61.0248 12.2297 61.2316 12.6849 61.6094C13.1401 61.9872 13.4489 62.5122 13.558 63.0936L13.8964 64.9018Z" fill="#FFC943"/>
<path d="M13.8964 65.7017H5.57639C5.45883 65.7017 5.34272 65.6758 5.23632 65.6258C5.12992 65.5758 5.03584 65.503 4.96077 65.4125C4.88571 65.3221 4.83151 65.2162 4.80203 65.1024C4.77254 64.9886 4.7685 64.8697 4.79019 64.7541L5.12919 62.9459C5.27295 62.1811 5.67943 61.4906 6.27835 60.9937C6.87727 60.4968 7.63099 60.2248 8.40919 60.2247H11.0652C11.8432 60.225 12.5967 60.4971 13.1954 60.994C13.7941 61.4909 14.2005 62.1813 14.3442 62.9459L14.6842 64.7541C14.7059 64.8697 14.7018 64.9886 14.6723 65.1024C14.6428 65.2162 14.5886 65.3221 14.5135 65.4126C14.4385 65.5031 14.3444 65.5759 14.2379 65.6259C14.1315 65.6758 14.0154 65.7017 13.8978 65.7017H13.8964ZM6.54079 64.1017H12.9324L12.771 63.2417C12.6962 62.8438 12.4848 62.4845 12.1732 62.2259C11.8616 61.9673 11.4695 61.8257 11.0646 61.8255H8.40859C8.00369 61.8257 7.61157 61.9673 7.29999 62.2259C6.98842 62.4845 6.77697 62.8438 6.70219 63.2417L6.54079 64.1017Z" fill="#102D3B"/>
<g opacity="0.4">
<path opacity="0.4" d="M39.1212 68.0318C38.942 68.0316 38.768 67.9713 38.6272 67.8604C38.4863 67.7495 38.3868 67.5946 38.3446 67.4204C35.9646 57.6098 34.4974 47.7204 33.7266 36.3004C33.6604 35.2643 33.8307 34.2268 34.2245 33.2662C34.6184 32.3056 35.2255 31.4472 36 30.7558C36.8944 29.9428 37.4284 28.904 37.428 27.9758C37.428 26.3076 35.6332 24.205 33.228 23.8804C30.1651 23.5688 27.0785 23.5688 24.0156 23.8804C22.0298 24.1492 19.8146 25.9538 19.8156 27.9752C19.8156 28.9032 20.3494 29.942 21.2438 30.7552C22.018 31.4468 22.6247 32.3053 23.0183 33.2659C23.4118 34.2265 23.5818 35.2641 23.5154 36.3C22.7444 47.722 21.277 57.611 18.8974 67.4212C18.8473 67.6274 18.7174 67.8053 18.5362 67.9157C18.355 68.0261 18.1374 68.0601 17.9312 68.01C17.725 67.96 17.5471 67.8301 17.4367 67.6489C17.3263 67.4677 17.2924 67.25 17.3424 67.0438C19.7 57.3238 21.1544 47.5212 21.919 36.1924C21.9682 35.3972 21.836 34.6013 21.5324 33.8647C21.2288 33.1281 20.7618 32.4702 20.1666 31.9406C18.9256 30.813 18.214 29.3682 18.2144 27.9768C18.2144 25.2992 20.7788 22.6968 23.816 22.2944C23.824 22.2932 23.8318 22.2924 23.8398 22.2916C27.019 21.9674 30.223 21.9674 33.4022 22.2916C33.41 22.2916 33.418 22.2932 33.4258 22.2944C36.463 22.6966 39.0284 25.299 39.0274 27.9774C39.0274 29.368 38.3164 30.813 37.0754 31.9406C36.4802 32.4702 36.0131 33.1281 35.7095 33.8647C35.4059 34.6013 35.2737 35.3972 35.323 36.1924C36.0876 47.521 37.5416 57.3242 39.8994 67.0438C39.9242 67.1459 39.9286 67.2519 39.9124 67.3557C39.8963 67.4595 39.8598 67.5592 39.8051 67.6489C39.7504 67.7386 39.6786 67.8167 39.5938 67.8786C39.5089 67.9406 39.4127 67.9852 39.3106 68.01C39.2485 68.0247 39.1849 68.032 39.1212 68.0318Z" fill="#2B5621"/>
<path opacity="0.4" d="M52.6426 45.6224H4.60001L7.94481 67.6732H18.4332V68.32C18.4332 69.636 18.7842 70.7028 20.1 70.7028H37.143C38.459 70.7028 38.8098 69.636 38.8098 68.32V67.6738H49.2984L52.6426 45.6224Z" fill="#2B5621" stroke="#2B5621" stroke-width="8" stroke-linecap="round" stroke-linejoin="round"/>
</g>
<path d="M49.9934 42.851H1.9502L5.295 64.9018H15.0676V65.548C15.0676 66.1799 15.3186 66.786 15.7655 67.2329C16.2124 67.6797 16.8184 67.9308 17.4504 67.9308H34.4934C35.1254 67.9308 35.7314 67.6797 36.1783 67.2329C36.6252 66.786 36.8762 66.1799 36.8762 65.548V64.9018H46.6486L49.9934 42.851Z" fill="#FFC943"/>
<g style="mix-blend-mode:multiply" opacity="0.18">
<g style="mix-blend-mode:multiply" opacity="0.18">
<path d="M18.12 68.0317C18.0563 68.0317 17.9927 68.0241 17.9308 68.0091C17.8287 67.9844 17.7324 67.9398 17.6475 67.8778C17.5627 67.8158 17.4908 67.7378 17.4361 67.6481C17.3814 67.5583 17.345 67.4587 17.3288 67.3549C17.3126 67.251 17.317 67.1451 17.3418 67.0429C19.263 59.0594 20.6124 50.949 21.38 42.7736C21.3901 42.669 21.4208 42.5674 21.4702 42.4747C21.5196 42.382 21.5868 42.2999 21.6679 42.2332C21.7491 42.1664 21.8426 42.1163 21.9431 42.0856C22.0436 42.055 22.1491 42.0445 22.2537 42.0547C22.3583 42.0648 22.4598 42.0955 22.5525 42.1449C22.6452 42.1943 22.7273 42.2615 22.7941 42.3426C22.8608 42.4238 22.911 42.5172 22.9416 42.6177C22.9722 42.7182 22.9827 42.8238 22.9726 42.9284C22.1978 51.1787 20.836 59.3633 18.8974 67.4199C18.8552 67.5943 18.7556 67.7494 18.6146 67.8604C18.4736 67.9713 18.2994 68.0317 18.12 68.0317Z" fill="#351915"/>
</g>
<g style="mix-blend-mode:multiply" opacity="0.18">
<path d="M38.5944 65.7904C38.4131 65.7903 38.2371 65.7287 38.0954 65.6156C37.9537 65.5025 37.8546 65.3446 37.8144 65.1678C36.158 57.8379 34.9735 50.4093 34.2682 42.9278C34.2477 42.7166 34.3119 42.5059 34.4468 42.3421C34.5816 42.1782 34.776 42.0747 34.9872 42.0542C35.1984 42.0337 35.4091 42.0979 35.5729 42.2327C35.7367 42.3676 35.8403 42.562 35.8608 42.7732C36.5596 50.1874 37.7332 57.5492 39.3744 64.8132C39.3977 64.9156 39.4007 65.0217 39.383 65.1252C39.3654 65.2288 39.3275 65.3279 39.2716 65.4168C39.2156 65.5058 39.1427 65.5828 39.057 65.6436C38.9713 65.7044 38.8744 65.7476 38.772 65.771C38.7137 65.7839 38.6541 65.7904 38.5944 65.7904Z" fill="#351915"/>
</g>
</g>
<g style="mix-blend-mode:multiply" opacity="0.18">
<g style="mix-blend-mode:multiply" opacity="0.18">
<path d="M34.8424 67.4061H18.504C18.3465 67.4061 18.1924 67.3596 18.0612 67.2724C17.93 67.1852 17.8274 67.0612 17.7664 66.916C17.7053 66.7707 17.6886 66.6107 17.7181 66.4559C17.7477 66.3012 17.8223 66.1586 17.9326 66.0461C18.5749 65.3867 19.073 64.6009 19.3952 63.7387C19.5908 63.1818 19.9524 62.6982 20.4313 62.353C20.9101 62.0078 21.4832 61.8177 22.0734 61.8081H31.2734C31.8636 61.8177 32.4366 62.0079 32.9154 62.3531C33.3942 62.6982 33.7558 63.1818 33.9514 63.7387C34.2737 64.6009 34.7718 65.3867 35.414 66.0461C35.5243 66.1586 35.5989 66.3012 35.6285 66.4559C35.658 66.6106 35.6413 66.7707 35.5803 66.9159C35.5193 67.0611 35.4168 67.1851 35.2856 67.2723C35.1544 67.3595 35.0003 67.4061 34.8428 67.4061H34.8424ZM20.1474 65.8061H33.2C32.9034 65.3318 32.6544 64.8293 32.4564 64.3061C32.3745 64.0535 32.2173 63.832 32.006 63.6711C31.7947 63.5103 31.5393 63.4178 31.274 63.4061H22.074C21.8087 63.4178 21.5533 63.5103 21.3419 63.6711C21.1306 63.832 20.9734 64.0535 20.8914 64.3061C20.6934 64.8294 20.4442 65.3318 20.1474 65.8061Z" fill="#351915"/>
</g>
</g>
<g style="mix-blend-mode:multiply" opacity="0.18">
<g style="mix-blend-mode:multiply" opacity="0.18">
<path d="M46.632 64.8187H38.312C38.1944 64.8188 38.0783 64.7929 37.9718 64.7429C37.8654 64.6929 37.7713 64.6201 37.6962 64.5296C37.6211 64.4392 37.5669 64.3332 37.5374 64.2194C37.5079 64.1056 37.5039 63.9867 37.5256 63.8711L37.8656 62.0629C38.0093 61.2983 38.4156 60.6078 39.0143 60.1109C39.613 59.614 40.3665 59.3419 41.1446 59.3416H43.8C44.5782 59.3416 45.332 59.6137 45.9309 60.1106C46.5298 60.6075 46.9363 61.2981 47.08 62.0629L47.42 63.8711C47.4417 63.9867 47.4376 64.1056 47.4081 64.2194C47.3786 64.3332 47.3244 64.4392 47.2493 64.5296C47.1743 64.6201 47.0802 64.6929 46.9737 64.7429C46.8673 64.7929 46.7512 64.8188 46.6336 64.8187H46.632ZM39.2764 63.2187H45.668L45.5066 62.3587C45.432 61.9606 45.2206 61.601 44.909 61.3422C44.5973 61.0834 44.2051 60.9417 43.8 60.9416H41.144C40.7391 60.9417 40.3469 61.0834 40.0353 61.342C39.7237 61.6006 39.5123 61.96 39.4376 62.3579L39.2764 63.2187Z" fill="#351915"/>
</g>
</g>
<path d="M36.4722 65.26C36.2929 65.2598 36.1189 65.1994 35.978 65.0885C35.8371 64.9776 35.7376 64.8226 35.6954 64.6484C33.3154 54.838 31.8482 44.9484 31.0776 33.5274C31.0114 32.4915 31.1817 31.4541 31.5754 30.4937C31.9691 29.5333 32.576 28.675 33.3502 27.9836C34.2448 27.1708 34.7786 26.132 34.7784 25.2046C34.7784 23.5364 32.9834 21.4336 30.5784 21.1092C27.5155 20.7975 24.4289 20.7975 21.366 21.1092C19.3802 21.378 17.166 23.1828 17.166 25.204C17.166 26.132 17.6996 27.1708 18.594 27.984C19.3682 28.6753 19.9752 29.5336 20.3689 30.494C20.7627 31.4544 20.9329 32.4917 20.8668 33.5276C20.096 44.9502 18.6286 54.8392 16.2488 64.6488C16.2247 64.7516 16.1805 64.8486 16.1187 64.9343C16.057 65.0199 15.9789 65.0925 15.8889 65.1478C15.7989 65.2031 15.6989 65.2401 15.5946 65.2566C15.4903 65.273 15.3838 65.2687 15.2812 65.2438C15.1785 65.2189 15.0819 65.1739 14.9967 65.1114C14.9116 65.049 14.8396 64.9703 14.785 64.8799C14.7304 64.7895 14.6943 64.6892 14.6787 64.5847C14.663 64.4803 14.6682 64.3738 14.694 64.2714C17.0516 54.5528 18.5058 44.7494 19.2706 33.4198C19.3198 32.6246 19.1876 31.8287 18.8839 31.0921C18.5803 30.3556 18.1132 29.6977 17.518 29.1682C16.278 28.0406 15.5656 26.5958 15.566 25.2044C15.566 22.5268 18.1302 19.9244 21.1674 19.522C21.1754 19.5208 21.1834 19.52 21.1912 19.5192C24.3704 19.1948 27.5744 19.1948 30.7536 19.5192C30.7616 19.5192 30.7694 19.5208 30.7774 19.522C33.8146 19.9242 36.3798 22.5266 36.379 25.205C36.379 26.5958 35.6678 28.0406 34.4268 29.1682C33.8316 29.6978 33.3646 30.3557 33.061 31.0923C32.7574 31.8289 32.6252 32.6248 32.6744 33.42C33.439 44.7486 34.8932 54.552 37.2508 64.2714C37.2794 64.3891 37.2809 64.5119 37.2552 64.6303C37.2295 64.7487 37.1771 64.8597 37.1022 64.955C37.0273 65.0502 36.9317 65.1272 36.8227 65.1801C36.7136 65.233 36.594 65.2605 36.4728 65.2604L36.4722 65.26Z" fill="#102D3B"/>
<path d="M46.6092 64.9018H38.2892L38.6282 63.0936C38.7372 62.5122 39.0461 61.9872 39.5013 61.6094C39.9565 61.2316 40.5294 61.0248 41.121 61.0248H43.777C44.3685 61.0248 44.9415 61.2316 45.3967 61.6094C45.8519 61.9872 46.1607 62.5122 46.2698 63.0936L46.6092 64.9018Z" fill="#FFC943"/>
<path d="M46.6092 65.7017H38.2892C38.1716 65.7017 38.0555 65.6758 37.9491 65.6258C37.8427 65.5758 37.7486 65.503 37.6736 65.4125C37.5985 65.3221 37.5443 65.2162 37.5148 65.1024C37.4853 64.9886 37.4813 64.8697 37.503 64.7541L37.842 62.9459C37.9857 62.1811 38.3922 61.4906 38.9911 60.9937C39.5901 60.4968 40.3438 60.2248 41.122 60.2247H43.778C44.556 60.225 45.3095 60.4971 45.9082 60.994C46.5069 61.4909 46.9133 62.1813 47.057 62.9459L47.397 64.7541C47.4187 64.8697 47.4146 64.9886 47.3851 65.1024C47.3557 65.2162 47.3014 65.3221 47.2264 65.4126C47.1513 65.5031 47.0572 65.5759 46.9507 65.6259C46.8443 65.6758 46.7282 65.7017 46.6106 65.7017H46.6092ZM39.2536 64.1017H45.6452L45.4838 63.2417C45.409 62.8438 45.1976 62.4845 44.886 62.2259C44.5744 61.9673 44.1823 61.8257 43.7774 61.8255H41.1214C40.7165 61.8257 40.3244 61.9673 40.0128 62.2259C39.7012 62.4845 39.4898 62.8438 39.415 63.2417L39.2536 64.1017Z" fill="#102D3B"/>
<path d="M34.4934 68.7305H17.4504C15.3942 68.7305 15.0138 66.9005 14.9854 65.7017H5.29499C5.10364 65.7017 4.91864 65.633 4.77355 65.5083C4.62846 65.3835 4.53289 65.2109 4.50419 65.0217L1.15999 42.9709C1.14271 42.857 1.15023 42.7407 1.18203 42.63C1.21384 42.5193 1.26917 42.4168 1.34426 42.3294C1.41935 42.2421 1.51241 42.172 1.61709 42.1239C1.72177 42.0758 1.8356 42.0509 1.95079 42.0509H49.9934C50.1086 42.0509 50.2224 42.0758 50.3272 42.1238C50.4319 42.1719 50.525 42.242 50.6001 42.3293C50.6752 42.4167 50.7305 42.5193 50.7623 42.63C50.7941 42.7407 50.8017 42.857 50.7844 42.9709L47.44 65.0215C47.4113 65.2107 47.3157 65.3833 47.1706 65.5081C47.0255 65.6328 46.8405 65.7015 46.6492 65.7015H36.9584C36.93 66.8999 36.5496 68.7305 34.4934 68.7305ZM5.98279 64.1017H15.7828C15.995 64.1017 16.1984 64.186 16.3485 64.336C16.4985 64.486 16.5828 64.6895 16.5828 64.9017V65.5479C16.5828 67.1305 17.1044 67.1305 17.4496 67.1305H34.4926C34.8378 67.1305 35.3594 67.1305 35.3594 65.5479V64.9017C35.3594 64.6895 35.4437 64.486 35.5937 64.336C35.7437 64.186 35.9472 64.1017 36.1594 64.1017H45.9594L49.0614 43.6509H2.87999L5.98279 64.1017Z" fill="#102D3B"/>
<path d="M33.96 67.9308H17.62C18.3407 67.1934 18.8993 66.3134 19.26 65.3474C19.3992 64.943 19.6587 64.5907 20.0037 64.3379C20.3487 64.085 20.7628 63.9436 21.1904 63.9326H30.3904C30.818 63.9436 31.232 64.085 31.5769 64.3379C31.9219 64.5908 32.1814 64.943 32.3206 65.3474C32.6811 66.3134 33.2395 67.1933 33.96 67.9308Z" fill="#FFC943"/>
<path d="M33.96 68.7306H17.62C17.4625 68.7305 17.3085 68.6839 17.1773 68.5967C17.0462 68.5095 16.9437 68.3855 16.8827 68.2403C16.8217 68.095 16.805 67.935 16.8346 67.7803C16.8641 67.6256 16.9387 67.4831 17.049 67.3706C17.6913 66.7112 18.1893 65.9253 18.5114 65.063C18.7071 64.5061 19.0687 64.0226 19.5475 63.6774C20.0264 63.3323 20.5994 63.1421 21.1896 63.1326H30.3896C30.9797 63.1422 31.5528 63.3323 32.0316 63.6774C32.5104 64.0226 32.8719 64.5061 33.0676 65.063C33.3898 65.9253 33.8879 66.7112 34.5302 67.3706C34.6405 67.4831 34.7151 67.6256 34.7447 67.7803C34.7742 67.9351 34.7575 68.0951 34.6965 68.2403C34.6355 68.3856 34.5329 68.5096 34.4018 68.5968C34.2706 68.684 34.1165 68.7305 33.959 68.7306H33.96ZM19.265 67.1306H32.3164C32.0198 66.6563 31.7708 66.1538 31.573 65.6306C31.4908 65.3782 31.3336 65.1569 31.1223 64.9963C30.911 64.8357 30.6557 64.7434 30.3906 64.7318H21.1906C20.9254 64.7434 20.6701 64.8357 20.4588 64.9963C20.2475 65.1569 20.0902 65.3782 20.008 65.6306C19.8102 66.1538 19.5611 66.6563 19.2644 67.1306H19.265Z" fill="#102D3B"/>
<path d="M65.3476 36.2076C63.8142 36.2058 62.3441 35.5959 61.2598 34.5116C60.1756 33.4273 59.5657 31.9572 59.564 30.4238V7.80517C59.574 5.92022 60.3298 4.11587 61.6662 2.78652C63.0026 1.45717 64.8109 0.710937 66.6959 0.710938C68.5809 0.710937 70.3892 1.45717 71.7256 2.78652C73.062 4.11587 73.8178 5.92022 73.8278 7.80517V28.0386C73.8278 28.2507 73.7435 28.4542 73.5935 28.6043C73.4434 28.7543 73.2399 28.8386 73.0278 28.8386C72.8156 28.8386 72.6121 28.7543 72.4621 28.6043C72.3121 28.4542 72.2278 28.2507 72.2278 28.0386V7.80517C72.219 6.34378 71.6323 4.94524 70.5958 3.91497C69.5593 2.88471 68.1573 2.30643 66.6959 2.30643C65.2345 2.30643 63.8324 2.88471 62.796 3.91497C61.7595 4.94524 61.1728 6.34378 61.164 7.80517V30.4238C61.1602 30.9756 61.2656 31.5228 61.4741 32.0337C61.6827 32.5446 61.9902 33.0093 62.3791 33.4008C62.768 33.7924 63.2304 34.1032 63.7399 34.3153C64.2494 34.5273 64.7958 34.6365 65.3477 34.6365C65.8995 34.6365 66.4459 34.5273 66.9554 34.3153C67.4649 34.1032 67.9274 33.7924 68.3163 33.4008C68.7051 33.0093 69.0127 32.5446 69.2213 32.0337C69.4298 31.5228 69.5352 30.9756 69.5314 30.4238V10.1522C69.5314 9.60052 69.3122 9.07147 68.9222 8.68139C68.5321 8.29131 68.003 8.07217 67.4514 8.07217C66.8997 8.07217 66.3707 8.29131 65.9806 8.68139C65.5905 9.07147 65.3714 9.60052 65.3714 10.1522V27.6948C65.3714 27.9069 65.2871 28.1104 65.1371 28.2605C64.987 28.4105 64.7836 28.4948 64.5714 28.4948C64.3592 28.4948 64.1557 28.4105 64.0057 28.2605C63.8557 28.1104 63.7714 27.9069 63.7714 27.6948V10.1522C63.7714 9.17617 64.1591 8.24015 64.8492 7.55002C65.5394 6.85988 66.4754 6.47217 67.4514 6.47217C68.4274 6.47217 69.3634 6.85988 70.0535 7.55002C70.7437 8.24015 71.1314 9.17617 71.1314 10.1522V30.4238C71.1296 31.9572 70.5197 33.4273 69.4354 34.5116C68.3511 35.5959 66.881 36.2058 65.3476 36.2076Z" fill="#FDFFFF"/>
<path d="M78.0084 68.62C77.096 68.6191 76.1967 68.4025 75.3841 67.9878C74.5714 67.573 73.8684 66.9719 73.3324 66.2336C72.7964 65.4952 72.4427 64.6405 72.3002 63.7394C72.1576 62.8382 72.2303 61.9161 72.5121 61.0484L79.5016 39.5369C80.0861 37.738 81.3613 36.2449 83.0467 35.3861C84.732 34.5274 86.6895 34.3733 88.4885 34.9578C90.2874 35.5423 91.7805 36.8175 92.6393 38.5029C93.498 40.1883 93.6521 42.1458 93.0676 43.9447L86.815 63.188C86.7825 63.2879 86.7307 63.3804 86.6624 63.4603C86.5942 63.5402 86.5109 63.6059 86.4173 63.6536C86.3237 63.7013 86.2216 63.7301 86.1169 63.7383C86.0121 63.7466 85.9068 63.7341 85.8069 63.7017C85.7069 63.6692 85.6144 63.6174 85.5345 63.5491C85.4546 63.4809 85.3889 63.3976 85.3412 63.304C85.2935 63.2104 85.2647 63.1083 85.2565 63.0036C85.2482 62.8988 85.2607 62.7935 85.2932 62.6936L91.5458 43.4503C91.9908 42.0573 91.8661 40.5446 91.1989 39.2433C90.5317 37.9419 89.3764 36.9576 87.9855 36.5057C86.5947 36.0538 85.0815 36.171 83.7768 36.8318C82.4721 37.4925 81.4821 38.6429 81.0234 40.0315L74.034 61.5432C73.8614 62.0664 73.794 62.6185 73.8354 63.1679C73.8769 63.7172 74.0264 64.253 74.2754 64.7444C74.5245 65.2358 74.8681 65.6732 75.2867 66.0315C75.7052 66.3897 76.1904 66.6618 76.7143 66.832C77.2383 67.0023 77.7907 67.0673 78.3399 67.0235C78.8891 66.9797 79.4242 66.8279 79.9145 66.5767C80.4049 66.3255 80.8408 65.98 81.1972 65.5599C81.5536 65.1398 81.8236 64.6534 81.9916 64.1288L88.2558 44.8487C88.414 44.3276 88.3614 43.7652 88.1095 43.2823C87.8575 42.7995 87.4262 42.4347 86.9083 42.2664C86.3903 42.0981 85.827 42.1397 85.3393 42.3822C84.8516 42.6247 84.4785 43.0487 84.3002 43.5633L78.88 60.248C78.8475 60.3479 78.7957 60.4405 78.7274 60.5204C78.6592 60.6003 78.5759 60.666 78.4823 60.7137C78.3886 60.7614 78.2865 60.7902 78.1818 60.7984C78.077 60.8067 77.9717 60.7942 77.8718 60.7618C77.7718 60.7293 77.6792 60.6775 77.5993 60.6092C77.5194 60.541 77.4538 60.4577 77.406 60.3641C77.3583 60.2704 77.3295 60.1683 77.3213 60.0636C77.313 59.9588 77.3255 59.8535 77.3579 59.7536L82.7792 43.0693C82.9285 42.6097 83.1669 42.184 83.4808 41.8165C83.7946 41.449 84.1778 41.147 84.6084 40.9275C85.039 40.7081 85.5086 40.5757 85.9904 40.5378C86.4722 40.4999 86.9567 40.5572 87.4164 40.7065C87.876 40.8559 88.3017 41.0943 88.6692 41.4081C89.0367 41.722 89.3388 42.1052 89.5582 42.5358C89.7776 42.9664 89.91 43.436 89.9479 43.9178C89.9859 44.3996 89.9285 44.8841 89.7792 45.3437L83.515 64.6238C83.1357 65.7854 82.3989 66.7974 81.4099 67.5151C80.4209 68.2328 79.2303 68.6195 78.0084 68.62Z" fill="#FDFFFF"/>
<g opacity="0.4">
<path opacity="0.4" d="M132.963 31.0271C134.639 29.4382 136.525 27.0362 136.861 24.8134H117.869C118.204 27.0362 120.09 29.4382 121.766 31.0271C122.324 31.5557 120.99 43.0179 119.93 43.5905C116.17 45.6203 113.135 49.1705 111.53 53.5801H143.2C141.594 49.1711 138.559 45.6201 134.8 43.5905C133.74 43.0179 132.406 31.5557 132.963 31.0271Z" fill="#2B5621" stroke="#2B5621" stroke-width="8" stroke-linecap="round" stroke-linejoin="round"/>
<path opacity="0.4" d="M129.964 53.5802H124.765L127.365 72.6046L129.964 53.5802Z" fill="#2B5621" stroke="#2B5621" stroke-width="8" stroke-linecap="round" stroke-linejoin="round"/>
</g>
<path d="M128.356 29.061C130.032 27.4722 131.918 25.0702 132.253 22.8472H113.261C113.596 25.0702 115.483 27.4722 117.159 29.061C117.716 29.5898 116.382 41.052 115.322 41.6244C111.563 43.6542 108.528 47.2043 106.922 51.6141H138.593C136.987 47.2049 133.951 43.6542 130.193 41.6244C129.132 41.052 127.798 29.5898 128.356 29.061Z" fill="#F42222"/>
<path d="M128.356 29.061C130.032 27.4722 131.918 25.0702 132.253 22.8472H113.261C113.596 25.0702 115.483 27.4722 117.159 29.061C117.716 29.5898 116.382 41.052 115.322 41.6244C111.563 43.6542 108.528 47.2043 106.922 51.6141H138.593C136.987 47.2049 133.951 43.6542 130.193 41.6244C129.132 41.052 127.798 29.5898 128.356 29.061Z" fill="#F42222"/>
<g style="mix-blend-mode:multiply">
<path d="M130.192 41.6244C129.132 41.052 127.798 29.5898 128.356 29.061C130.032 27.4722 131.918 25.0702 132.253 22.8472H130.703C130.368 25.0702 128.482 27.4722 126.806 29.061C126.248 29.5898 127.582 41.052 128.642 41.6244C132.401 43.6542 135.437 47.2043 137.042 51.6141H138.592C136.987 47.2049 133.951 43.6542 130.192 41.6244Z" fill="#F42222"/>
</g>
<path d="M120.718 22.8472H117.848C117.621 23.8815 117.721 24.9608 118.135 25.9355C118.549 26.9102 119.256 27.732 120.157 28.2872L119.107 42.0846C119.107 42.0846 114.058 45.1646 113.543 51.615H117.296C117.296 51.615 117.222 45.1638 120.607 42.195L121.207 28.2872C121.207 28.2872 119.78 25.6924 120.718 22.8472Z" fill="#FF7676"/>
<path d="M125.357 51.6141H120.157L122.757 70.6383L125.357 51.6141Z" fill="#E8E8E8"/>
<path d="M138.593 52.4142H106.922C106.793 52.4142 106.666 52.3832 106.552 52.3238C106.438 52.2644 106.34 52.1784 106.266 52.073C106.193 51.9676 106.145 51.846 106.129 51.7185C106.112 51.591 106.126 51.4613 106.17 51.3405C107.819 46.8143 110.898 43.1362 114.848 40.9718C115.608 39.7718 116.703 31.0416 116.471 29.5102C115.307 28.3836 112.89 25.7502 112.471 22.9666C112.454 22.8527 112.461 22.7364 112.493 22.6257C112.525 22.515 112.58 22.4124 112.655 22.3251C112.73 22.2377 112.824 22.1676 112.928 22.1196C113.033 22.0715 113.147 22.0466 113.262 22.0466H132.254C132.369 22.0466 132.483 22.0715 132.588 22.1196C132.693 22.1676 132.786 22.2377 132.861 22.3251C132.936 22.4124 132.991 22.515 133.023 22.6257C133.055 22.7364 133.062 22.8527 133.045 22.9666C132.625 25.75 130.208 28.3836 129.045 29.5102C128.813 31.0408 129.908 39.7716 130.668 40.9718C134.618 43.1362 137.697 46.8143 139.346 51.3405C139.39 51.4613 139.404 51.591 139.388 51.7186C139.371 51.8461 139.324 51.9677 139.25 52.0731C139.176 52.1784 139.078 52.2645 138.964 52.3239C138.85 52.3833 138.723 52.4143 138.594 52.4142H138.593ZM108.101 50.8142H137.413C135.813 47.1154 133.145 44.1282 129.812 42.3284C129.454 42.1352 128.71 41.7334 127.88 35.479C127.679 33.959 127.526 32.409 127.46 31.229C127.342 29.0878 127.52 28.7506 127.805 28.4804C129.485 26.8872 130.71 25.1456 131.229 23.6472H114.285C114.804 25.1456 116.028 26.8872 117.709 28.4804C117.994 28.7506 118.171 29.0878 118.054 31.2278C117.988 32.4078 117.836 33.9554 117.634 35.4758C116.804 41.7332 116.059 42.1358 115.702 42.3284C112.369 44.1282 109.702 47.1154 108.101 50.8142Z" fill="#102D3B"/>
<path d="M122.757 71.4384C122.564 71.4384 122.377 71.3684 122.231 71.2412C122.085 71.1141 121.991 70.9384 121.965 70.7468L119.365 51.7226C119.349 51.6094 119.358 51.4943 119.391 51.3849C119.423 51.2755 119.479 51.1743 119.554 51.0883C119.629 51.0022 119.722 50.9332 119.826 50.8859C119.93 50.8387 120.043 50.8142 120.157 50.8142H125.357C125.471 50.8142 125.584 50.8387 125.688 50.8859C125.792 50.9332 125.885 51.0022 125.96 51.0883C126.035 51.1743 126.091 51.2755 126.124 51.3849C126.156 51.4943 126.165 51.6094 126.15 51.7226L123.55 70.7468C123.524 70.9384 123.429 71.1141 123.283 71.2412C123.137 71.3684 122.951 71.4384 122.757 71.4384ZM121.074 52.4142L122.757 64.7302L124.44 52.4142H121.074Z" fill="#102D3B"/>
</g>
<defs>
<clipPath id="clip0_91_0">
<rect width="148" height="77" fill="white"/>
</clipPath>
</defs>
</svg>
