<svg width="48" height="43" viewBox="0 0 48 43" fill="none" xmlns="http://www.w3.org/2000/svg">
<circle cx="21.5" cy="21.5" r="21.5" fill="#858098"/>
<path d="M48 43H22C30.0379 42.068 33.7933 39.2718 36.9831 36C38.4875 40.2039 45.0621 42.7083 48 43Z" fill="#858098"/>
<path d="M15.6823 19.22C15.2157 19.9533 14.9823 21.0533 14.9823 22.52C14.9823 23.9867 15.2157 25.0867 15.6823 25.82C16.1223 26.5267 16.7757 26.88 17.6423 26.88C18.4957 26.88 19.1423 26.5267 19.5823 25.82C20.0623 25.1 20.3023 24 20.3023 22.52C20.3023 21.04 20.0623 19.94 19.5823 19.22C19.1423 18.5133 18.4957 18.16 17.6423 18.16C16.7757 18.16 16.1223 18.5133 15.6823 19.22ZM13.3623 27.14C12.6023 25.98 12.2223 24.44 12.2223 22.52C12.2223 20.6 12.6023 19.06 13.3623 17.9C14.3357 16.4467 15.7623 15.72 17.6423 15.72C19.5223 15.72 20.9423 16.4467 21.9023 17.9C22.6757 19.0733 23.0623 20.6133 23.0623 22.52C23.0623 24.4267 22.6757 25.9667 21.9023 27.14C20.9423 28.5933 19.5223 29.32 17.6423 29.32C15.7623 29.32 14.3357 28.5933 13.3623 27.14ZM30.148 29H27.408V20.32H24.288V18.46C25.2213 18.4467 26.0013 18.2133 26.628 17.76C27.2546 17.2933 27.6346 16.7133 27.768 16.02H30.148V29Z" fill="white"/>
</svg>
